<svg preserveAspectRatio="xMidYMid meet" data-bbox="0 0.01 342.95 178.41" viewBox="-30 0 362.95 178.41" xmlns="http://www.w3.org/2000/svg" data-type="ugc" role="presentation" aria-hidden="true" aria-label="">
    <g>
        <defs>
            <linearGradient gradientUnits="userSpaceOnUse" y2="60.88" x2="149.9" y1="154.86" x1="204.16" id="d4d9dcf2-1241-424c-bb59-463a2fc5f1b9_comp-lm6333ww_r_comp-liu7a4zw">
                <stop stop-color="#c1d72e" offset=".01"></stop>
                <stop stop-color="#9fb226" offset=".63"></stop>
                <stop stop-color="#98aa28" offset=".68"></stop>
                <stop stop-color="#87942e" offset=".76"></stop>
                <stop stop-color="#6a7139" offset=".86"></stop>
                <stop stop-color="#474747" offset=".96"></stop>
            </linearGradient>
        </defs>
        <g>
            <path d="M0 178.22V166.8h8.61v2.23H2.5v2.32h5.38v2.23H2.5v2.4h6.2v2.23H0Z" fill="#ffffff"></path>
            <path d="M20.45 178.3h-2.22l-4.62-11.5h2.77l2.98 8.04 2.98-8.04h2.71l-4.62 11.5Z" fill="#ffffff"></path>
            <path d="M30.49 178.22V166.8h8.61v2.23h-6.11v2.32h5.38v2.23h-5.38v2.4h6.2v2.23H30.5Z" fill="#ffffff"></path>
            <path d="m52.02 178.22-2.45-3.65H47.6v3.65h-2.51V166.8h5.22c2.69 0 4.31 1.42 4.31 3.77v.03c0 1.84-.99 3-2.45 3.54l2.79 4.08h-2.93Zm.05-7.52c0-1.08-.75-1.63-1.97-1.63h-2.5v3.28h2.54c1.22 0 1.92-.65 1.92-1.61v-.03Z" fill="#ffffff"></path>
            <path d="M65.86 173.67v4.55h-2.51v-4.5l-4.39-6.91h2.94l2.72 4.58 2.77-4.58h2.85l-4.39 6.87Z" fill="#ffffff"></path>
            <path d="M79.82 167.59v10.63h-.85v-10.63h-3.98v-.78h8.81v.78h-3.98Z" fill="#ffffff"></path>
            <path d="m97.85 178.22-3.64-4.73h-3.73v4.73h-.85V166.8h4.79c2.46 0 4.08 1.34 4.08 3.24v.03c0 1.91-1.42 3-3.34 3.26l3.77 4.88h-1.08Zm-.19-8.14c0-1.53-1.21-2.5-3.28-2.5h-3.9v5.14h3.85c1.91 0 3.33-.96 3.33-2.61v-.03Z" fill="#ffffff"></path>
            <path d="M104.8 178.22V166.8h.85v11.42h-.85Z" fill="#ffffff"></path>
            <path d="M117.37 178.22h-4.96V166.8h4.71c2.22 0 3.7 1.09 3.7 2.81v.03c0 1.55-1.01 2.33-1.94 2.71 1.37.36 2.58 1.14 2.58 2.72v.03c0 1.91-1.63 3.12-4.09 3.12Zm2.6-8.53c0-1.26-1.03-2.1-2.85-2.1h-3.85v4.48h3.77c1.71 0 2.94-.83 2.94-2.35v-.03Zm.63 5.38c0-1.4-1.22-2.22-3.47-2.22h-3.86v4.58h4.14c1.96 0 3.2-.9 3.2-2.33v-.03Z" fill="#ffffff"></path>
            <path d="M127.45 178.22V166.8h8.12v.78h-7.27v4.48h6.54v.78h-6.54v4.58h7.35v.78h-8.2Z" fill="#ffffff"></path>
            <path d="M142.94 178.22V166.8h8.61v2.23h-6.11v2.32h5.38v2.23h-5.38v2.4h6.2v2.23h-8.69Z" fill="#ffffff"></path>
            <path d="M163.39 178.3h-2.22l-4.62-11.5h2.77l2.98 8.04 2.98-8.04h2.71l-4.62 11.5Z" fill="#ffffff"></path>
            <path d="M173.43 178.22V166.8h8.61v2.23h-6.11v2.32h5.38v2.23h-5.38v2.4h6.2v2.23h-8.69Z" fill="#ffffff"></path>
            <path d="m194.96 178.22-2.45-3.65h-1.97v3.65h-2.51V166.8h5.22c2.69 0 4.31 1.42 4.31 3.77v.03c0 1.84-.99 3-2.45 3.54l2.79 4.08h-2.93Zm.05-7.52c0-1.08-.75-1.63-1.97-1.63h-2.5v3.28h2.54c1.22 0 1.92-.65 1.92-1.61v-.03Z" fill="#ffffff"></path>
            <path d="M208.8 173.67v4.55h-2.51v-4.5l-4.39-6.91h2.94l2.72 4.58 2.77-4.58h2.85l-4.39 6.87Z" fill="#ffffff"></path>
            <path d="m227.61 178.22-8.04-10.14v10.14h-.82V166.8h.8l7.88 9.93v-9.93h.82v11.42h-.64Z" fill="#ffffff"></path>
            <path d="m244.43 178.22-1.45-3.2h-6.74l-1.45 3.2h-.88l5.32-11.5h.82l5.32 11.5h-.93Zm-4.81-10.57-3.02 6.6h6.02l-3-6.6Z" fill="#ffffff"></path>
            <path d="M253.58 167.59v10.63h-.85v-10.63h-3.98v-.78h8.81v.78h-3.98Z" fill="#ffffff"></path>
            <path d="M263.51 178.22V166.8h.85v11.42h-.85Z" fill="#ffffff"></path>
            <path d="M276.34 178.41c-3.46 0-5.72-2.76-5.72-5.87v-.03c0-3.12 2.3-5.9 5.76-5.9s5.72 2.76 5.72 5.87v.03c0 3.11-2.3 5.9-5.76 5.9Zm4.88-5.9c0-2.82-2.05-5.14-4.88-5.14s-4.84 2.28-4.84 5.1v.03c0 2.82 2.06 5.14 4.88 5.14s4.84-2.28 4.84-5.1v-.03Z" fill="#ffffff"></path>
            <path d="m297.1 178.22-8.04-10.14v10.14h-.82V166.8h.8l7.88 9.93v-9.93h.82v11.42h-.64Z" fill="#ffffff"></path>
            <path d="M179.35 150.25H88.31c-5.33 0-8.65-5.76-5.99-10.37l27.98-48.46 27.98-48.46c2.66-4.61 9.32-4.61 11.98 0l11.13 19.28c-.08-.14-.16-.27-.25-.4-.27-.41-.57-.78-.91-1.1-1.88-1.83-4.6-2.37-6.97-1.61-.31.1-.62.22-.91.37-.1.05-.2.1-.29.16a6.144 6.144 0 0 0-1.11.77 6.998 6.998 0 0 0-1.52 1.83l-4.72 8.18-18.25 31.61-5.01 8.68-13.25 22.93h61.59l9.58 16.59Z" fill="#c1d72e"></path>
            <path d="M212.19 150.22h-21.41l-27.83-48.21L144.7 70.4l4.72-8.18c.33-.57.73-1.08 1.17-1.52.11-.1.22-.21.34-.31.23-.2.47-.38.72-.54.13-.08.26-.16.39-.23.1-.05.2-.1.29-.16.29-.14.6-.27.91-.37 2.37-.76 5.09-.23 6.97 1.61.33.32.64.69.91 1.1.09.14.18.27.26.42l4.48 7.75 23.5 40.71 22.82 39.53Z" fill="url(#d4d9dcf2-1241-424c-bb59-463a2fc5f1b9_comp-lm6333ww_r_comp-liu7a4zw)"></path>
            <path d="M68.44 140.39c-2.4-4.16-6.85-6.73-11.67-6.73H16.81V56.54c-.15-4.64-2.68-8.9-6.73-11.22L0 39.51V143.3c.03 3.62 2.95 6.95 7.04 6.95h67.09l-5.69-9.86Zm-51.63 2.91v-.07l.04.07h-.04Zm0-.24v-.07l.04.07h-.04Z" fill="#c1d72e"></path>
            <path d="M292.53 94.74a32.22 32.22 0 0 0 6.54-8.32c2.48-4.54 3.88-9.74 3.88-15.28 0-17.6-14.26-31.87-31.84-31.89h-51.58v110.97h3.06l48.47.01c17.61-.01 31.89-14.3 31.89-31.91 0-5.53-1.41-10.73-3.88-15.28a32.48 32.48 0 0 0-6.54-8.31Zm-21.48 8.31c8.72 0 15.79 6.84 15.79 15.28s-7.06 15.28-15.78 15.29h-34.91V55.87h34.97c8.7.04 15.73 6.86 15.73 15.28S280 86.22 271.47 86.43c-.13.01-.28.01-.4.01h-8.05c-4.41.14-8.44 2.45-10.79 6.15-.12.15-.21.32-.31.49l-1.41 2.45-4.35 7.52h24.89Z" fill="#c1d72e"></path>
            <path d="M2.95.45v26.13H0V.45h2.95Z" fill="#ffffff"></path>
            <path d="M36.61.45h2.87v26.13h-2.35L20.26 5.15v21.43h-2.87V.45h2.76l16.46 20.94V.45Z" fill="#ffffff"></path>
            <path d="M72.54.45h2.87v26.13h-2.35L56.19 5.15v21.43h-2.87V.45h2.76l16.46 20.94V.45Z" fill="#ffffff"></path>
            <path d="M112.81 18.65a13.66 13.66 0 0 1-2.72 4.31c-1.17 1.24-2.58 2.23-4.22 2.97-1.64.73-3.46 1.1-5.45 1.1s-3.8-.36-5.43-1.08c-1.63-.72-3.03-1.7-4.2-2.93a13.094 13.094 0 0 1-2.71-4.29c-.63-1.63-.95-3.35-.95-5.17s.32-3.54.97-5.17a13.51 13.51 0 0 1 2.73-4.31c1.17-1.24 2.58-2.23 4.22-2.97 1.64-.73 3.46-1.1 5.45-1.1s3.8.36 5.43 1.08c1.63.72 3.03 1.7 4.2 2.93 1.17 1.23 2.07 2.66 2.71 4.29.63 1.63.95 3.35.95 5.17s-.32 3.54-.97 5.17Zm-2.85-9.32a10.34 10.34 0 0 0-2.15-3.43c-.92-.97-2.01-1.74-3.27-2.31-1.26-.57-2.63-.86-4.13-.86s-2.87.28-4.12.84a9.756 9.756 0 0 0-3.23 2.3c-.9.97-1.6 2.11-2.11 3.42-.51 1.31-.76 2.71-.76 4.2s.25 2.9.76 4.22a10.34 10.34 0 0 0 2.15 3.43c.92.97 2.01 1.74 3.27 2.31 1.26.57 2.63.86 4.13.86s2.87-.28 4.13-.84a9.756 9.756 0 0 0 3.23-2.3c.9-.97 1.6-2.11 2.11-3.42.51-1.31.76-2.71.76-4.2s-.26-2.9-.76-4.22Z" fill="#ffffff"></path>
            <path d="M143.79.45h3.17l-11.24 26.32h-2.61L121.87.45h3.29l9.3 22.51L143.79.45Z" fill="#ffffff"></path>
            <path d="M181.58 26.58h-3.17l-3.06-6.91h-14.22l-3.1 6.91h-3.02L166.91.26h2.76l11.91 26.32ZM168.25 3.73l-5.97 13.33h11.91l-5.94-13.33Z" fill="#ffffff"></path>
            <path d="M200.48 26.58h-2.95V3.17h-8.77V.45h20.5v2.73h-8.77v23.41Z" fill="#ffffff"></path>
            <path d="M225.47.45v26.13h-2.95V.45h2.95Z" fill="#ffffff"></path>
            <path d="M263.96 18.65a13.66 13.66 0 0 1-2.72 4.31c-1.17 1.24-2.58 2.23-4.22 2.97-1.64.73-3.46 1.1-5.45 1.1s-3.8-.36-5.43-1.08c-1.63-.72-3.03-1.7-4.2-2.93a13.094 13.094 0 0 1-2.71-4.29c-.63-1.63-.95-3.35-.95-5.17s.32-3.54.97-5.17a13.51 13.51 0 0 1 2.73-4.31c1.17-1.24 2.58-2.23 4.22-2.97 1.64-.73 3.46-1.1 5.45-1.1s3.8.36 5.43 1.08c1.63.72 3.03 1.7 4.2 2.93 1.17 1.23 2.07 2.66 2.71 4.29.63 1.63.95 3.35.95 5.17s-.32 3.54-.97 5.17Zm-2.85-9.32a10.34 10.34 0 0 0-2.15-3.43c-.92-.97-2.01-1.74-3.27-2.31-1.26-.57-2.63-.86-4.13-.86s-2.87.28-4.12.84a9.756 9.756 0 0 0-3.23 2.3c-.9.97-1.6 2.11-2.11 3.42-.51 1.31-.76 2.71-.76 4.2s.25 2.9.76 4.22a10.34 10.34 0 0 0 2.15 3.43c.92.97 2.01 1.74 3.27 2.31 1.26.57 2.63.86 4.13.86s2.87-.28 4.13-.84a9.756 9.756 0 0 0 3.23-2.3c.9-.97 1.6-2.11 2.11-3.42.51-1.31.76-2.71.76-4.2s-.26-2.9-.76-4.22Z" fill="#ffffff"></path>
            <path d="M294.86.45h2.87v26.13h-2.35L278.51 5.15v21.43h-2.87V.45h2.76l16.46 20.94V.45Z" fill="#ffffff"></path>
        </g>
    </g>
</svg>